<svg xmlns="http://www.w3.org/2000/svg" viewBox="0 0 240 240" fill="none" role="img" aria-labelledby="title">
  <title id="title">Brasão do Colégio Estadual Jardim Oriente</title>
  <g stroke="#f0ead8" stroke-linecap="round" stroke-linejoin="round">
    <path d="M48 185C31 168 22 145 23 121c1-30 17-57 45-78M192 185c17-17 26-40 25-64-1-30-17-57-45-78" stroke-width="3"/>
    <g stroke-width="2.1">
      <path d="M42 169c-13-2-22-9-27-20 13 0 23 5 30 15M31 143c-13-5-20-14-21-26 12 3 21 10 25 22M30 114c-10-9-14-20-10-31 11 7 17 17 16 29M39 86c-7-12-6-23 1-33 8 10 10 21 6 32M56 62c-3-13 1-23 11-30 4 12 2 23-5 32M70 47c0-12 6-20 17-24 1 12-4 22-13 29"/>
      <path d="M198 169c13-2 22-9 27-20-13 0-23 5-30 15M209 143c13-5 20-14 21-26-12 3-21 10-25 22M210 114c10-9 14-20 10-31-11 7-17 17-16 29M201 86c7-12 6-23-1-33-8 10-10 21-6 32M184 62c3-13-1-23-11-30-4 12-2 23 5 32M170 47c0-12-6-20-17-24-1 12 4 22 13 29"/>
    </g>
    <g stroke-width="1.6">
      <path d="M31 151 44 158M23 124l15 8M25 96l14 8M35 70l14 10M54 49l12 13M73 34l8 15M209 151l-13 7M217 124l-15 8M215 96l-14 8M205 70l-14 10M186 49l-12 13M167 34l-8 15"/>
    </g>
    <path d="m49 181 68 42 6-9-61-43M191 181l-68 42-6-9 61-43" stroke-width="3"/>
    <path d="m117 214 6 9m-10-6 6 9" stroke-width="2"/>
    <ellipse cx="120" cy="105" rx="55" ry="65" stroke-width="3.4"/>
    <ellipse cx="120" cy="105" rx="48" ry="57" stroke-width="1.5"/>
    <circle cx="120" cy="105" r="33" stroke-width="1.8"/>
    <path d="M88 105h64M120 73v64M96 82c13 13 13 33 0 46M144 82c-13 13-13 33 0 46M105 74c-10 18-10 44 0 62M135 74c10 18 10 44 0 62M91 92c18 9 40 9 58 0M91 118c18-9 40-9 58 0" stroke-width="1.45"/>
  </g>
  <defs>
    <path id="top-arc" d="M75 105A45 53 0 0 1 165 105" />
    <path id="bottom-arc" d="M75 105A45 53 0 0 0 165 105" />
  </defs>
  <g fill="#f0ead8" font-family="Georgia,serif" font-size="8.2" font-weight="700" letter-spacing="1.15" text-anchor="middle">
    <text><textPath href="#top-arc" startOffset="50%">COLÉGIO ESTADUAL</textPath></text>
    <text><textPath href="#bottom-arc" startOffset="50%">JARDIM ORIENTE</textPath></text>
  </g>
</svg>